<svg width="51" height="50" viewBox="0 0 51 50" fill="none" xmlns="http://www.w3.org/2000/svg">
<g clip-path="url(#clip0_1639_1141)">
<circle cx="25.5" cy="25" r="25" fill="white"/>
<g clip-path="url(#clip1_1639_1141)">
<path d="M23.6239 23.3656C23.8745 23.4952 24.0883 23.5933 24.2923 23.7124C25.375 24.3488 26.0022 25.2891 25.9718 26.6439C25.961 27.1278 25.9601 27.6242 25.8617 28.0929C25.5763 29.4534 24.6287 30.1946 23.4897 30.6223C22.793 30.8679 22.0646 30.9965 21.3307 31.0034C19.3112 31.0529 17.2908 31.0205 15.2714 31.0196C15.1819 31.0196 15.0978 31.0043 15.0029 30.9948V17.0225C15.1022 17.0149 15.198 17.0016 15.2937 17.0016C17.4805 17.0016 19.6676 17.0016 21.855 17.0016C22.5274 17.0039 23.1894 17.1788 23.785 17.5113C24.7621 18.0457 25.3383 18.8755 25.3839 20.0731C25.4322 21.3773 25.035 22.4548 23.9523 23.1617C23.8575 23.2227 23.7608 23.2799 23.6239 23.3656ZM17.9028 28.6112C19.0911 28.6112 20.2614 28.6607 21.4264 28.5931C22.1422 28.5512 22.7623 28.1853 23.0235 27.3898C23.4298 26.1513 22.7381 24.9709 21.4586 24.8661C20.3053 24.7708 19.1412 24.8261 17.9825 24.8175C17.9547 24.8175 17.927 24.849 17.9028 24.8642V28.6112ZM17.8832 22.5825C17.916 22.6013 17.9509 22.616 17.9869 22.6263C18.8128 22.6263 19.6387 22.6378 20.4645 22.6311C20.7642 22.6365 21.0638 22.6122 21.3593 22.5587C21.9552 22.432 22.4142 22.1052 22.5601 21.4278C22.7864 20.3741 22.2022 19.5158 21.1284 19.4491C20.0726 19.3843 19.0106 19.4376 17.9512 19.4405C17.9342 19.4405 17.9181 19.4681 17.8805 19.5015V22.5825H17.8832Z" fill="#1D1D1D"/>
<path d="M36.4231 26.6337H29.5049C29.4574 27.3673 29.6426 27.9875 30.1079 28.4991C31.1136 29.6042 32.9139 29.4346 33.7675 28.1447C33.8224 28.0457 33.9029 27.9656 33.9993 27.9139C34.0958 27.8623 34.2041 27.8412 34.3115 27.8531C34.9217 27.8703 35.5328 27.8589 36.1905 27.8589C36.0365 28.5796 35.7087 29.2452 35.2394 29.79C34.4448 30.7179 33.4141 31.1114 32.2732 31.2495C29.7026 31.5591 27.4818 29.8948 26.9244 27.2396C26.3329 24.4215 27.7144 21.6454 30.1375 20.7813C32.8092 19.8286 35.6697 21.6196 36.2907 24.6416C36.357 24.9902 36.4009 25.3432 36.4222 25.6981C36.4401 25.9906 36.4231 26.2869 36.4231 26.6337ZM33.7183 24.8359C33.5322 23.4298 32.5202 22.5056 31.3919 22.6714C30.3522 22.8238 29.4485 23.8861 29.5576 24.8359H33.7183Z" fill="#1D1D1D"/>
<path d="M28.9365 17.9375H34.2639V19.317H28.9365V17.9375Z" fill="#1D1D1D"/>
</g>
</g>
<defs>
<clipPath id="clip0_1639_1141">
<rect width="50" height="50" fill="white" transform="translate(0.5)"/>
</clipPath>
<clipPath id="clip1_1639_1141">
<rect width="21.4286" height="14.2857" fill="white" transform="translate(15 17)"/>
</clipPath>
</defs>
</svg>
