<svg width="49" height="49" viewBox="0 0 49 49" fill="none" xmlns="http://www.w3.org/2000/svg">
<g clip-path="url(#clip0_105_93)">
<circle cx="24.5" cy="24.5" r="24.5" fill="#1769FF"/>
<g clip-path="url(#clip1_105_93)">
<path d="M22.4515 23.2383C22.697 23.3653 22.9066 23.4615 23.1065 23.5782C24.1675 24.2019 24.7822 25.1234 24.7524 26.451C24.7419 26.9253 24.741 27.4117 24.6445 27.8711C24.3648 29.2043 23.4362 29.9307 22.32 30.3499C21.6372 30.5906 20.9233 30.7166 20.2041 30.7234C18.225 30.7719 16.2451 30.7402 14.266 30.7392C14.1783 30.7392 14.0959 30.7243 14.0029 30.715V17.0221C14.1003 17.0147 14.1941 17.0016 14.2879 17.0016C16.431 17.0016 18.5743 17.0016 20.7179 17.0016C21.3769 17.0039 22.0257 17.1752 22.6093 17.5011C23.5669 18.0249 24.1316 18.8381 24.1763 20.0117C24.2236 21.2898 23.8343 22.3458 22.7733 23.0385C22.6804 23.0983 22.5857 23.1543 22.4515 23.2383ZM16.8448 28.379C18.0093 28.379 19.1563 28.4275 20.2979 28.3612C20.9994 28.3202 21.6071 27.9616 21.8631 27.182C22.2612 25.9683 21.5834 24.8115 20.3295 24.7088C19.1992 24.6155 18.0584 24.6696 16.9229 24.6612C16.8957 24.6612 16.8685 24.692 16.8448 24.707V28.379ZM16.8256 22.4709C16.8578 22.4893 16.8919 22.5037 16.9273 22.5138C17.7366 22.5138 18.546 22.525 19.3553 22.5185C19.649 22.5238 19.9426 22.5 20.2322 22.4475C20.8162 22.3234 21.266 22.0031 21.4089 21.3393C21.6308 20.3067 21.0582 19.4655 20.0059 19.4001C18.9712 19.3366 17.9304 19.3889 16.8922 19.3917C16.8755 19.3917 16.8598 19.4188 16.8229 19.4515V22.4709H16.8256Z" fill="white"/>
<path d="M34.9948 26.441H28.2149C28.1685 27.1599 28.35 27.7677 28.8059 28.2691C29.7915 29.3521 31.5558 29.1859 32.3923 27.9218C32.4461 27.8248 32.525 27.7463 32.6195 27.6957C32.714 27.645 32.8202 27.6243 32.9254 27.6361C33.5235 27.6529 34.1224 27.6417 34.7668 27.6417C34.6159 28.3481 34.2947 29.0004 33.8347 29.5342C33.0561 30.4436 32.0459 30.8292 30.9279 30.9645C28.4087 31.268 26.2323 29.6369 25.6861 27.0348C25.1064 24.2731 26.4603 21.5525 28.8349 20.7056C31.4532 19.772 34.2565 21.5273 34.8651 24.4888C34.93 24.8304 34.9731 25.1763 34.994 25.5242C35.0115 25.8108 34.9948 26.1012 34.9948 26.441ZM32.3441 24.6792C32.1617 23.3012 31.17 22.3955 30.0642 22.558C29.0453 22.7074 28.1597 23.7484 28.2667 24.6792H32.3441Z" fill="white"/>
<path d="M27.658 17.9187H32.8788V19.2706H27.658V17.9187Z" fill="white"/>
</g>
</g>
<defs>
<clipPath id="clip0_105_93">
<rect width="49" height="49" fill="white"/>
</clipPath>
<clipPath id="clip1_105_93">
<rect width="21" height="14" fill="white" transform="translate(14 17)"/>
</clipPath>
</defs>
</svg>
