<svg width="51" height="50" viewBox="0 0 51 50" fill="none" xmlns="http://www.w3.org/2000/svg">
<g clip-path="url(#clip0_1639_1125)">
<circle cx="25.5" cy="25" r="25" fill="white"/>
<g clip-path="url(#clip1_1639_1125)">
<path d="M15 24.1392C15.0579 24.1261 15.1185 24.0932 15.1728 24.1021C17.9056 24.552 20.5946 24.2623 23.2627 23.6131C23.8619 23.4675 24.4501 23.2765 25.0436 23.1064C25.0921 23.0928 25.1412 23.0777 25.2257 23.0542L26.2362 25.4595C25.7732 25.6542 25.3374 25.8248 24.9141 26.0179C23.1396 26.8352 21.5409 27.8967 20.2496 29.384C19.4474 30.3067 18.8404 31.3322 18.6421 32.5623C18.6384 32.5853 18.6316 32.6077 18.6139 32.6849C18.2563 32.329 17.9077 32.0159 17.5987 31.6683C15.9431 29.8057 15.0793 27.6284 15.0329 25.1323C15.0329 24.9971 15.013 24.862 15.0026 24.7268L15 24.1392Z" fill="#1D1D1D"/>
<path d="M24.4176 35C23.9875 34.9369 23.5543 34.8888 23.1279 34.8085C22.0052 34.5966 20.9603 34.1775 19.9738 33.6045C19.9228 33.5781 19.8799 33.5383 19.8497 33.4894C19.8196 33.4405 19.8033 33.3843 19.8026 33.3269C19.7316 32.5816 19.9681 31.9141 20.3303 31.2837C20.941 30.2212 21.8048 29.3882 22.7709 28.6555C23.904 27.8002 25.1573 27.117 26.4902 26.628L26.5799 26.5967C27.1123 27.4317 27.9782 32.699 27.8848 34.5924C27.4302 34.6879 26.9646 34.7949 26.4954 34.8815C26.1958 34.9369 25.891 34.9614 25.5888 35H24.4176Z" fill="#1D1D1D"/>
<path d="M15.2119 22.9101C15.2495 22.7478 15.2756 22.609 15.3132 22.4738C16.0705 19.7481 17.7057 17.7091 20.1452 16.2979C20.2543 16.2348 20.3201 16.2457 20.4114 16.3339C22.0936 17.9799 23.4762 19.8509 24.6125 21.9076C24.6245 21.9295 24.6334 21.9535 24.6558 22.0047C21.5717 22.9503 18.461 23.4753 15.2119 22.9101Z" fill="#1D1D1D"/>
<path d="M25.7789 21.6378C24.6255 19.4556 23.1578 17.4546 21.4229 15.6988C21.7532 15.5892 22.0539 15.4754 22.3623 15.3888C25.5033 14.51 28.3573 15.1477 30.9701 17.0338C31.3673 17.3203 31.3495 17.3208 31.2504 17.7853C31.1314 18.3405 30.7858 18.7361 30.3829 19.0957C29.6183 19.7768 28.7409 20.2882 27.8254 20.7297C27.161 21.0507 26.4736 21.3325 25.7789 21.6378Z" fill="#1D1D1D"/>
<path d="M27.7109 26.2277C30.1385 25.5853 32.5159 25.4971 34.8881 26.413C34.6595 28.0244 34.0315 29.5531 33.0613 30.8599C32.0174 32.2763 30.687 33.3425 29.0487 34.0956C28.9621 31.4244 28.512 28.7775 27.7109 26.2277Z" fill="#1D1D1D"/>
<path d="M27.3548 25.1208C27.0109 24.3004 26.6721 23.4931 26.3271 22.6716C26.3632 22.6539 26.406 22.6294 26.4514 22.6116C27.8893 22.0454 29.287 21.3982 30.5376 20.4766C30.8607 20.2347 31.1671 19.9712 31.4546 19.688C31.8534 19.2998 32.165 18.8468 32.3336 18.2701C34.1008 20.2532 35.0027 22.5349 34.9996 25.2048C32.4479 24.303 29.9008 24.4204 27.3548 25.1208Z" fill="#1D1D1D"/>
</g>
</g>
<defs>
<clipPath id="clip0_1639_1125">
<rect width="50" height="50" fill="white" transform="translate(0.5)"/>
</clipPath>
<clipPath id="clip1_1639_1125">
<rect width="20" height="20" fill="white" transform="translate(15 15)"/>
</clipPath>
</defs>
</svg>
