<svg width="49" height="49" viewBox="0 0 49 49" fill="none" xmlns="http://www.w3.org/2000/svg">
<g clip-path="url(#clip0_105_60)">
<circle cx="24.5" cy="24.5" r="24.5" fill="#DADADA"/>
<g clip-path="url(#clip1_105_60)">
<path d="M14 23.1392C14.0579 23.1261 14.1185 23.0932 14.1728 23.1021C16.9056 23.552 19.5946 23.2623 22.2627 22.6131C22.8619 22.4675 23.4501 22.2765 24.0436 22.1064C24.0921 22.0928 24.1412 22.0777 24.2257 22.0542L25.2362 24.4595C24.7732 24.6542 24.3374 24.8248 23.9141 25.0179C22.1396 25.8352 20.5409 26.8967 19.2496 28.3841C18.4474 29.3067 17.8404 30.3322 17.6421 31.5623C17.6384 31.5853 17.6316 31.6077 17.6139 31.6849C17.2563 31.329 16.9077 31.0159 16.5987 30.6683C14.9431 28.8057 14.0793 26.6284 14.0329 24.1323C14.0329 23.9971 14.013 23.862 14.0026 23.7268L14 23.1392Z" fill="#1D1D1D"/>
<path d="M23.4178 34C22.9877 33.9369 22.5545 33.8888 22.1281 33.8085C21.0054 33.5966 19.9605 33.1775 18.9741 32.6045C18.923 32.5781 18.8801 32.5383 18.85 32.4894C18.8198 32.4405 18.8035 32.3843 18.8029 32.3269C18.7319 31.5816 18.9683 30.9141 19.3305 30.2837C19.9412 29.2211 20.805 28.3882 21.7711 27.6555C22.9043 26.8002 24.1576 26.117 25.4904 25.628L25.5802 25.5967C26.1126 26.4317 26.9784 31.699 26.885 33.5924C26.4304 33.6879 25.9649 33.7949 25.4956 33.8815C25.196 33.9369 24.8912 33.9614 24.589 34H23.4178Z" fill="#1D1D1D"/>
<path d="M14.2119 21.9101C14.2495 21.7478 14.2756 21.609 14.3132 21.4738C15.0705 18.7481 16.7057 16.7091 19.1452 15.2979C19.2543 15.2348 19.3201 15.2457 19.4114 15.3339C21.0936 16.9799 22.4762 18.8509 23.6125 20.9076C23.6245 20.9295 23.6334 20.9535 23.6558 21.0047C20.5717 21.9503 17.461 22.4753 14.2119 21.9101Z" fill="#1D1D1D"/>
<path d="M24.779 20.6378C23.6256 18.4556 22.1579 16.4546 20.423 14.6988C20.7534 14.5892 21.054 14.4754 21.3625 14.3888C24.5035 13.51 27.3574 14.1477 29.9702 16.0338C30.3674 16.3203 30.3496 16.3208 30.2505 16.7853C30.1315 17.3406 29.786 17.7361 29.383 18.0957C28.6184 18.7768 27.741 19.2882 26.8255 19.7297C26.1611 20.0507 25.4737 20.3325 24.779 20.6378Z" fill="#1D1D1D"/>
<path d="M26.7112 25.2277C29.1387 24.5853 31.5161 24.4971 33.8883 25.413C33.6598 27.0244 33.0318 28.5531 32.0615 29.8599C31.0177 31.2763 29.6873 32.3425 28.0489 33.0956C27.9623 30.4244 27.5123 27.7775 26.7112 25.2277Z" fill="#1D1D1D"/>
<path d="M26.3552 24.1208C26.0112 23.3004 25.6725 22.4931 25.3275 21.6716C25.3635 21.6539 25.4063 21.6294 25.4517 21.6116C26.8897 21.0454 28.2874 20.3982 29.538 19.4766C29.861 19.2347 30.1674 18.9712 30.455 18.688C30.8538 18.2998 31.1653 17.8468 31.3339 17.2701C33.1012 19.2532 34.0031 21.5349 34 24.2048C31.4482 23.303 28.9012 23.4205 26.3552 24.1208Z" fill="#1D1D1D"/>
</g>
</g>
<defs>
<clipPath id="clip0_105_60">
<rect width="49" height="49" fill="white"/>
</clipPath>
<clipPath id="clip1_105_60">
<rect width="20" height="20" fill="white" transform="translate(14 14)"/>
</clipPath>
</defs>
</svg>
