<svg width="51" height="50" viewBox="0 0 51 50" fill="none" xmlns="http://www.w3.org/2000/svg">
<g clip-path="url(#clip0_1639_1136)">
<circle cx="25.5" cy="25" r="25" fill="white"/>
<g clip-path="url(#clip1_1639_1136)">
<path d="M16 31.8206V18.1791C16.0122 18.1293 16.0272 18.0796 16.0362 18.0293C16.1343 17.4642 16.4279 16.9515 16.8656 16.5808C17.3032 16.2102 17.8572 16.0051 18.4306 16.0015C22.8127 15.9974 27.1939 15.9974 31.5741 16.0015C32.2148 16.0043 32.8286 16.26 33.282 16.713C33.7354 17.1659 33.9917 17.7796 33.9953 18.4205C34.0016 22.8077 34.0016 27.1947 33.9953 31.5816C33.9953 32.6499 33.2676 33.5934 32.2426 33.894C32.1018 33.9348 31.9609 33.9635 31.8201 33.9977H18.1809C18.1483 33.9856 18.1151 33.9754 18.0813 33.9672C17.0592 33.7756 16.3981 33.1792 16.0887 32.1897C16.0498 32.0709 16.0291 31.9446 16 31.8206ZM25.5869 23.9554C25.5869 23.8 25.5902 23.6445 25.5869 23.4891C25.5803 23.2181 25.4554 23.0927 25.184 23.0913C24.6629 23.0885 24.1417 23.0885 23.6206 23.0913C23.3281 23.0913 23.2079 23.2162 23.2079 23.514C23.2079 25.745 23.2079 27.9763 23.2079 30.2079C23.2079 30.4977 23.3365 30.6254 23.6262 30.6263C24.1126 30.6263 24.5986 30.6263 25.0845 30.6263C25.4784 30.624 25.5808 30.524 25.5808 30.1239C25.5808 28.9996 25.5808 27.8749 25.5808 26.7506C25.5808 26.3214 25.6747 25.9133 25.9123 25.5493C26.2015 25.106 26.6268 24.9684 27.133 25.036C27.5945 25.098 27.9048 25.3699 28.0133 25.8081C28.1012 26.1774 28.147 26.5555 28.1499 26.9351C28.1664 28.0181 28.1537 29.102 28.1537 30.1854C28.1537 30.5042 28.2729 30.6235 28.5861 30.624C29.1076 30.624 29.6289 30.624 30.15 30.624C30.4646 30.624 30.5895 30.501 30.5895 30.1891C30.5895 28.9592 30.6036 27.7293 30.5778 26.4998C30.5697 25.9788 30.5111 25.4598 30.4026 24.9501C30.2012 24.0338 29.6941 23.3468 28.7401 23.0951C28.457 23.0219 28.1662 22.9827 27.8739 22.9781C26.9785 22.9626 26.1719 23.1697 25.5869 23.9554ZM19.7589 26.845C19.7589 27.9577 19.7589 29.0703 19.7589 30.183C19.7589 30.4822 19.8997 30.624 20.2012 30.6249C20.6929 30.6249 21.1848 30.6249 21.6768 30.6249C21.9886 30.6249 22.1341 30.4883 22.1341 30.1788C22.1363 27.9656 22.1363 25.7522 22.1341 23.5384C22.1341 23.2247 21.9933 23.0899 21.681 23.088C21.1953 23.0852 20.7092 23.0852 20.2228 23.088C19.888 23.088 19.7584 23.2228 19.7584 23.56C19.7587 24.6545 19.7589 25.7495 19.7589 26.845ZM22.4764 20.9161C22.4791 20.5133 22.3228 20.1257 22.0415 19.8375C21.7602 19.5493 21.3766 19.3837 20.974 19.3766C20.7716 19.3733 20.5706 19.4099 20.3825 19.4845C20.1943 19.559 20.0227 19.67 19.8776 19.811C19.7324 19.952 19.6165 20.1203 19.5365 20.3062C19.4565 20.4922 19.414 20.6921 19.4114 20.8944C19.4078 21.3002 19.5653 21.6908 19.8492 21.9805C20.1332 22.2703 20.5205 22.4355 20.9261 22.44C21.1285 22.4438 21.3298 22.4073 21.5179 22.3324C21.7061 22.2576 21.8774 22.1459 22.0219 22.004C22.1664 21.8621 22.2812 21.6928 22.3595 21.506C22.4377 21.3192 22.478 21.1186 22.4778 20.9161H22.4764Z" fill="#1D1D1D"/>
</g>
</g>
<defs>
<clipPath id="clip0_1639_1136">
<rect width="50" height="50" fill="white" transform="translate(0.5)"/>
</clipPath>
<clipPath id="clip1_1639_1136">
<rect width="18" height="18" fill="white" transform="translate(16 16)"/>
</clipPath>
</defs>
</svg>
