<svg width="54" height="54" viewBox="0 0 54 54" fill="none" xmlns="http://www.w3.org/2000/svg">
<rect width="54" height="54" rx="27" fill="#001B33"/>
<path d="M22.7359 34.4232H31.2641C31.4788 34.4232 31.6585 34.3502 31.8033 34.2043C31.9481 34.0584 32.0205 33.8772 32.0205 33.6607C32.0205 33.4443 31.9481 33.2651 31.8033 33.1232C31.6585 32.9813 31.4788 32.9104 31.2641 32.9104H22.7359C22.5211 32.9104 22.3414 32.9834 22.1966 33.1293C22.0519 33.2752 21.9795 33.4564 21.9795 33.6729C21.9795 33.8893 22.0519 34.0685 22.1966 34.2104C22.3414 34.3523 22.5211 34.4232 22.7359 34.4232ZM22.7359 28.8463H31.2641C31.4788 28.8463 31.6585 28.7733 31.8033 28.6274C31.9481 28.4815 32.0205 28.3003 32.0205 28.0838C32.0205 27.8674 31.9481 27.6882 31.8033 27.5463C31.6585 27.4044 31.4788 27.3335 31.2641 27.3335H22.7359C22.5211 27.3335 22.3414 27.4065 22.1966 27.5524C22.0519 27.6983 21.9795 27.8795 21.9795 28.096C21.9795 28.3124 22.0519 28.4916 22.1966 28.6335C22.3414 28.7753 22.5211 28.8463 22.7359 28.8463ZM18.9231 39.6668C18.4002 39.6668 17.949 39.477 17.5694 39.0974C17.1898 38.7178 17 38.2665 17 37.7437V16.2566C17 15.7337 17.1898 15.2825 17.5694 14.9029C17.949 14.5233 18.4002 14.3335 18.9231 14.3335H29.7128C29.9808 14.3335 30.2337 14.3869 30.4715 14.4938C30.7093 14.6006 30.9171 14.7386 31.0948 14.9079L36.4256 20.2386C36.5948 20.4164 36.7328 20.6242 36.8397 20.8619C36.9465 21.0997 36.9999 21.3526 36.9999 21.6206V37.7437C36.9999 38.2665 36.8101 38.7178 36.4305 39.0974C36.0509 39.477 35.5997 39.6668 35.0768 39.6668H18.9231ZM29.7513 20.5463V15.8463H18.9231C18.8205 15.8463 18.7265 15.889 18.641 15.9745C18.5555 16.06 18.5128 16.154 18.5128 16.2566V37.7437C18.5128 37.8462 18.5555 37.9403 18.641 38.0258C18.7265 38.1112 18.8205 38.154 18.9231 38.154H35.0768C35.1794 38.154 35.2734 38.1112 35.3589 38.0258C35.4444 37.9403 35.4871 37.8462 35.4871 37.7437V21.5078H30.7128C30.4466 21.5078 30.2198 21.4141 30.0324 21.2267C29.845 21.0393 29.7513 20.8125 29.7513 20.5463Z" fill="#BAC8DB"/>
</svg>
