<svg width="49" height="49" viewBox="0 0 49 49" fill="none" xmlns="http://www.w3.org/2000/svg">
<g clip-path="url(#clip0_105_76)">
<circle cx="24.5" cy="24.5" r="24.5" fill="#DADADA"/>
<g clip-path="url(#clip1_105_76)">
<path d="M22.4514 23.2383C22.6969 23.3653 22.9065 23.4615 23.1064 23.5782C24.1674 24.2018 24.7821 25.1234 24.7523 26.451C24.7418 26.9253 24.7409 27.4117 24.6444 27.8711C24.3647 29.2043 23.4361 29.9307 22.3199 30.3499C21.6371 30.5906 20.9232 30.7166 20.204 30.7234C18.2249 30.7719 16.2449 30.7402 14.2659 30.7392C14.1782 30.7392 14.0958 30.7243 14.0028 30.715V17.0221C14.1001 17.0147 14.194 17.0016 14.2878 17.0016C16.4308 17.0016 18.5742 17.0016 20.7178 17.0016C21.3768 17.0039 22.0256 17.1752 22.6092 17.5011C23.5668 18.0249 24.1315 18.8381 24.1762 20.0117C24.2235 21.2898 23.8342 22.3458 22.7732 23.0385C22.6802 23.0983 22.5855 23.1543 22.4514 23.2383ZM16.8447 28.379C18.0092 28.379 19.1561 28.4275 20.2978 28.3612C20.9993 28.3202 21.607 27.9616 21.863 27.182C22.2611 25.9683 21.5833 24.8115 20.3294 24.7088C19.1991 24.6155 18.0583 24.6696 16.9228 24.6612C16.8956 24.6612 16.8684 24.692 16.8447 24.707V28.379ZM16.8254 22.4709C16.8577 22.4893 16.8918 22.5037 16.9271 22.5138C17.7365 22.5138 18.5458 22.525 19.3552 22.5185C19.6489 22.5238 19.9424 22.5 20.232 22.4475C20.816 22.3234 21.2659 22.0031 21.4088 21.3393C21.6306 20.3067 21.058 19.4655 20.0058 19.4001C18.9711 19.3366 17.9303 19.3889 16.8921 19.3917C16.8754 19.3917 16.8596 19.4188 16.8228 19.4515V22.4709H16.8254Z" fill="#1D1D1D"/>
<path d="M34.9947 26.441H28.2148C28.1683 27.1599 28.3498 27.7677 28.8058 28.2691C29.7914 29.3521 31.5557 29.1859 32.3922 27.9218C32.446 27.8248 32.5249 27.7463 32.6194 27.6957C32.7139 27.645 32.8201 27.6243 32.9253 27.6361C33.5233 27.6529 34.1222 27.6417 34.7667 27.6417C34.6158 28.3481 34.2945 29.0003 33.8346 29.5342C33.056 30.4435 32.0458 30.8291 30.9278 30.9645C28.4086 31.268 26.2322 29.6369 25.6859 27.0348C25.1063 24.2731 26.4602 21.5525 28.8347 20.7056C31.4531 19.772 34.2564 21.5272 34.8649 24.4888C34.9299 24.8304 34.973 25.1763 34.9938 25.5242C35.0114 25.8108 34.9947 26.1012 34.9947 26.441ZM32.344 24.6792C32.1616 23.3012 31.1698 22.3955 30.0641 22.558C29.0452 22.7074 28.1596 23.7484 28.2665 24.6792H32.344Z" fill="#1D1D1D"/>
<path d="M27.6581 17.9187H32.8789V19.2706H27.6581V17.9187Z" fill="#1D1D1D"/>
</g>
</g>
<defs>
<clipPath id="clip0_105_76">
<rect width="49" height="49" fill="white"/>
</clipPath>
<clipPath id="clip1_105_76">
<rect width="21" height="14" fill="white" transform="translate(14 17)"/>
</clipPath>
</defs>
</svg>
