<svg width="49" height="49" viewBox="0 0 49 49" fill="none" xmlns="http://www.w3.org/2000/svg">
<g clip-path="url(#clip0_105_101)">
<circle cx="24.5" cy="24.5" r="24.5" fill="#3171AD"/>
<g clip-path="url(#clip1_105_101)">
<path d="M15 30.8206V17.1791C15.0122 17.1293 15.0272 17.0796 15.0362 17.0293C15.1343 16.4642 15.4279 15.9515 15.8656 15.5808C16.3032 15.2102 16.8572 15.0051 17.4306 15.0015C21.8127 14.9974 26.1939 14.9974 30.5741 15.0015C31.2148 15.0043 31.8286 15.26 32.282 15.713C32.7354 16.1659 32.9917 16.7796 32.9953 17.4205C33.0016 21.8077 33.0016 26.1947 32.9953 30.5816C32.9953 31.6499 32.2676 32.5934 31.2426 32.894C31.1018 32.9348 30.9609 32.9635 30.8201 32.9977H17.1809C17.1483 32.9856 17.1151 32.9754 17.0813 32.9672C16.0592 32.7756 15.3981 32.1792 15.0887 31.1897C15.0498 31.0709 15.0291 30.9446 15 30.8206ZM24.5869 22.9554C24.5869 22.8 24.5902 22.6445 24.5869 22.4891C24.5803 22.2181 24.4554 22.0927 24.184 22.0913C23.6629 22.0885 23.1417 22.0885 22.6206 22.0913C22.3281 22.0913 22.2079 22.2162 22.2079 22.514C22.2079 24.745 22.2079 26.9763 22.2079 29.2079C22.2079 29.4977 22.3365 29.6254 22.6262 29.6263C23.1126 29.6263 23.5986 29.6263 24.0845 29.6263C24.4784 29.624 24.5808 29.524 24.5808 29.1239C24.5808 27.9996 24.5808 26.8749 24.5808 25.7506C24.5808 25.3214 24.6747 24.9133 24.9123 24.5493C25.2015 24.106 25.6268 23.9684 26.133 24.036C26.5945 24.098 26.9048 24.3699 27.0133 24.8081C27.1012 25.1774 27.147 25.5555 27.1499 25.9351C27.1664 27.0181 27.1537 28.102 27.1537 29.1854C27.1537 29.5042 27.2729 29.6235 27.5861 29.624C28.1076 29.624 28.6289 29.624 29.15 29.624C29.4646 29.624 29.5895 29.501 29.5895 29.1891C29.5895 27.9592 29.6036 26.7293 29.5778 25.4998C29.5697 24.9788 29.5111 24.4598 29.4026 23.9501C29.2012 23.0338 28.6941 22.3468 27.7401 22.0951C27.457 22.0219 27.1662 21.9827 26.8739 21.9781C25.9785 21.9626 25.1719 22.1697 24.5869 22.9554ZM18.7589 25.845C18.7589 26.9577 18.7589 28.0703 18.7589 29.183C18.7589 29.4822 18.8997 29.624 19.2012 29.6249C19.6929 29.6249 20.1848 29.6249 20.6768 29.6249C20.9886 29.6249 21.1341 29.4883 21.1341 29.1788C21.1363 26.9656 21.1363 24.7522 21.1341 22.5384C21.1341 22.2247 20.9933 22.0899 20.681 22.088C20.1953 22.0852 19.7092 22.0852 19.2228 22.088C18.888 22.088 18.7584 22.2228 18.7584 22.56C18.7587 23.6545 18.7589 24.7495 18.7589 25.845ZM21.4764 19.9161C21.4791 19.5133 21.3228 19.1257 21.0415 18.8375C20.7602 18.5493 20.3766 18.3837 19.974 18.3766C19.7716 18.3733 19.5706 18.4099 19.3825 18.4845C19.1943 18.559 19.0227 18.67 18.8776 18.811C18.7324 18.952 18.6165 19.1203 18.5365 19.3062C18.4565 19.4922 18.414 19.6921 18.4114 19.8944C18.4078 20.3002 18.5653 20.6908 18.8492 20.9805C19.1332 21.2703 19.5205 21.4355 19.9261 21.44C20.1285 21.4438 20.3298 21.4073 20.5179 21.3324C20.7061 21.2576 20.8774 21.1459 21.0219 21.004C21.1664 20.8621 21.2812 20.6928 21.3595 20.506C21.4377 20.3192 21.478 20.1186 21.4778 19.9161H21.4764Z" fill="white"/>
</g>
</g>
<defs>
<clipPath id="clip0_105_101">
<rect width="49" height="49" fill="white"/>
</clipPath>
<clipPath id="clip1_105_101">
<rect width="18" height="18" fill="white" transform="translate(15 15)"/>
</clipPath>
</defs>
</svg>
